<?xml version="1.0" encoding="UTF-8" standalone="no"?>
<!DOCTYPE svg PUBLIC "-//W3C//DTD SVG 1.1//EN" "http://www.w3.org/Graphics/SVG/1.1/DTD/svg11.dtd">
<svg width="100%" height="100%" viewBox="0 0 512 512" version="1.1" xmlns="http://www.w3.org/2000/svg" xmlns:xlink="http://www.w3.org/1999/xlink" xml:space="preserve" xmlns:serif="http://www.serif.com/" style="fill-rule:evenodd;clip-rule:evenodd;stroke-linejoin:round;stroke-miterlimit:2;">
    <g transform="matrix(528.38,0,0,528.38,-7.9257,471.579)">
        <path d="M0.5,-0.827C0.479,-0.827 0.465,-0.812 0.465,-0.788C0.465,-0.764 0.472,-0.724 0.479,-0.674L0.488,-0.611L0.431,-0.639C0.376,-0.667 0.334,-0.691 0.311,-0.691C0.289,-0.691 0.276,-0.673 0.276,-0.655C0.276,-0.622 0.327,-0.612 0.418,-0.598L0.481,-0.588L0.436,-0.543C0.384,-0.492 0.349,-0.46 0.349,-0.433C0.349,-0.414 0.366,-0.399 0.384,-0.399C0.413,-0.399 0.435,-0.443 0.472,-0.518L0.5,-0.573L0.528,-0.518C0.566,-0.442 0.588,-0.399 0.616,-0.399C0.634,-0.399 0.651,-0.414 0.651,-0.433C0.651,-0.46 0.616,-0.493 0.564,-0.543L0.519,-0.588L0.582,-0.598C0.676,-0.613 0.724,-0.623 0.724,-0.655C0.724,-0.673 0.71,-0.691 0.689,-0.691C0.666,-0.691 0.624,-0.667 0.569,-0.639L0.512,-0.611L0.521,-0.674C0.528,-0.723 0.535,-0.765 0.535,-0.788C0.535,-0.812 0.521,-0.827 0.5,-0.827ZM0.239,-0.417C0.218,-0.417 0.204,-0.402 0.204,-0.378C0.204,-0.354 0.211,-0.314 0.218,-0.264L0.227,-0.201L0.17,-0.229C0.115,-0.257 0.073,-0.281 0.05,-0.281C0.028,-0.281 0.015,-0.263 0.015,-0.245C0.015,-0.212 0.066,-0.202 0.157,-0.188L0.22,-0.178L0.175,-0.133C0.123,-0.082 0.088,-0.05 0.088,-0.023C0.088,-0.004 0.105,0.011 0.123,0.011C0.152,0.011 0.174,-0.033 0.211,-0.108L0.239,-0.163L0.267,-0.108C0.305,-0.032 0.327,0.011 0.355,0.011C0.373,0.011 0.39,-0.004 0.39,-0.023C0.39,-0.05 0.355,-0.083 0.303,-0.133L0.258,-0.178L0.321,-0.188C0.415,-0.203 0.463,-0.213 0.463,-0.245C0.463,-0.263 0.449,-0.281 0.428,-0.281C0.405,-0.281 0.363,-0.257 0.308,-0.229L0.251,-0.201L0.26,-0.264C0.267,-0.313 0.274,-0.355 0.274,-0.378C0.274,-0.402 0.26,-0.417 0.239,-0.417ZM0.76,-0.417C0.739,-0.417 0.725,-0.402 0.725,-0.378C0.725,-0.354 0.732,-0.314 0.739,-0.264L0.748,-0.201L0.691,-0.229C0.636,-0.257 0.594,-0.281 0.571,-0.281C0.549,-0.281 0.536,-0.263 0.536,-0.245C0.536,-0.212 0.587,-0.202 0.678,-0.188L0.741,-0.178L0.696,-0.133C0.644,-0.082 0.609,-0.05 0.609,-0.023C0.609,-0.004 0.626,0.011 0.644,0.011C0.673,0.011 0.695,-0.033 0.732,-0.108L0.76,-0.163L0.788,-0.108C0.826,-0.032 0.848,0.011 0.876,0.011C0.894,0.011 0.911,-0.004 0.911,-0.023C0.911,-0.05 0.876,-0.083 0.824,-0.133L0.779,-0.178L0.842,-0.188C0.936,-0.203 0.984,-0.213 0.984,-0.245C0.984,-0.263 0.97,-0.281 0.949,-0.281C0.926,-0.281 0.884,-0.257 0.829,-0.229L0.772,-0.201L0.781,-0.264C0.788,-0.313 0.795,-0.355 0.795,-0.378C0.795,-0.402 0.781,-0.417 0.76,-0.417Z" style="fill:rgb(165,0,52);fill-rule:nonzero;"/>
    </g>
</svg>
